:FULLY-SPECIFIED
:FORCE-ALL-JOINTS-BE-3DOF
:DEGREES
374
root 6.13261 16.4971 -15.7755 8.85833 -18.1498 -5.93617
lfemur -42.2432 22.9624 -10.6149
ltibia 77.2042 -0 0
lfoot -11.3491 -4.25072 0.0392428
ltoes 15.2926 -0 0
rfemur -27.771 -7.35197 32.0031
rtibia 44.9565 -0 0
rfoot -20.1922 1.38765 0.222255
rtoes 16.8965 -0 0
lowerback 5.24812 1.27013 2.78411
upperback 2.63835 1.80711 1.16979
thorax -0.191667 0.916736 -0.461085
lowerneck -8.21482 -0.89789 2.61653
upperneck -0.557347 -1.50652 2.20102
head 1.19773 -0.706428 0.168114
lclavicle -2.17055e-14 -1.91578e-14 -6.78506e-32
lhumerus -41.2831 -21.0238 95.6619
lradius 57.6219 -0 0
lwrist 21.3818 0 0
lhand -21.5503 3.3368 -0.143673
lfingers 7.12502 -0 0
lthumb 4.85201 33.4195 -0.0764168
rclavicle -2.17055e-14 -1.91578e-14 -6.78506e-32
rhumerus -38.8958 10.747 -94.5291
rradius 63.1385 -0 0
rwrist 8.03811 0 0
rhand -8.74446 -20.5377 -0.143896
rfingers 7.12502 -0 0
rthumb 17.1945 -49.8883 -0.13825
375
root 6.06354 16.4921 -15.596 8.81885 -19.2336 -6.0605
lfemur -42.3352 22.7258 -10.5366
ltibia 77.1272 -0 0
lfoot -11.3164 -4.19959 0.0471823
ltoes 15.5164 -0 0
rfemur -27.8838 -7.7171 32.2504
rtibia 45.5559 -0 0
rfoot -20.1292 1.59327 0.275639
rtoes 16.9448 -0 0
lowerback 5.26616 1.3604 2.79676
upperback 2.61492 1.92685 1.13956
thorax -0.224458 0.976551 -0.507881
lowerneck -8.23358 -0.693074 2.71506
upperneck -0.427225 -1.24712 2.09303
head 1.24109 -0.574693 0.119935
lclavicle -2.16484e-14 -1.89668e-14 -8.57924e-32
lhumerus -41.3236 -20.5854 95.4724
lradius 57.4727 -0 0
lwrist 21.4093 0 0
lhand -21.9662 3.18317 -0.181389
lfingers 7.12502 -0 0
lthumb 4.45253 33.3147 -0.0967916
rclavicle -2.16484e-14 -1.89668e-14 -8.57924e-32
rhumerus -39.3403 10.5791 -94.8695
rradius 62.9712 -0 0
rwrist 8.19177 0 0
rhand -8.57426 -20.3603 -0.181619
rfingers 7.12502 -0 0
rthumb 17.3588 -49.7183 -0.174282
376
root 5.99144 16.4854 -15.4096 8.77353 -20.3314 -6.17896
lfemur -42.4066 22.4748 -10.4564
ltibia 77.0141 -0 0
lfoot -11.2885 -4.12664 0.0542613
ltoes 15.7214 -0 0
rfemur -28.0219 -8.09846 32.4844
rtibia 46.2003 -0 0
rfoot -20.0369 1.79498 0.327437
rtoes 17.0137 -0 0
lowerback 5.28545 1.45387 2.80457
upperback 2.59093 2.05062 1.10515
thorax -0.258368 1.03834 -0.556583
lowerneck -8.24932 -0.485667 2.81888
upperneck -0.293742 -0.984579 1.98296
head 1.28539 -0.441401 0.070331
lclavicle -2.15898e-14 -1.87318e-14 -1.03872e-31
lhumerus -41.3703 -20.1484 95.2839
lradius 57.3166 -0 0
lwrist 21.4325 0 0
lhand -22.3758 3.02928 -0.219541
lfingers 7.12502 -0 0
lthumb 4.05894 33.2087 -0.117542
rclavicle -2.15898e-14 -1.87318e-14 -1.03872e-31
rhumerus -39.7858 10.4092 -95.1992
rradius 62.8095 -0 0
rwrist 8.34334 0 0
rhand -8.42172 -20.1805 -0.219661
rfingers 7.12502 -0 0
rthumb 17.5061 -49.5463 -0.210535
377
root 5.91669 16.4772 -15.2171 8.72213 -21.4396 -6.29082
lfemur -42.4568 22.21 -10.3747
ltibia 76.8646 -0 0
lfoot -11.2655 -4.03171 0.060433
ltoes 15.9065 -0 0
rfemur -28.1853 -8.49493 32.7044
rtibia 46.8882 -0 0
rfoot -19.915 1.99205 0.377302
rtoes 17.1032 -0 0
lowerback 5.30592 1.55029 2.80744
upperback 2.56642 2.17806 1.06662
thorax -0.293306 1.10192 -0.607062
lowerneck -8.26188 -0.276336 2.92773
upperneck -0.157302 -0.71971 1.87118
head 1.33048 -0.306975 0.0194477
lclavicle -2.153e-14 -1.84526e-14 -1.21958e-31
lhumerus -41.423 -19.714 95.097
lradius 57.1538 -0 0
lwrist 21.4511 0 0
lhand -22.7778 2.87563 -0.257956
lfingers 7.12502 -0 0
lthumb 3.6727 33.1017 -0.138585
rclavicle -2.153e-14 -1.84526e-14 -1.21958e-31
rhumerus -40.231 10.2381 -95.5169
rradius 62.6542 -0 0
rwrist 8.49226 0 0
rhand -8.2877 -19.9988 -0.257811
rfingers 7.12502 -0 0
rthumb 17.6355 -49.3731 -0.246807
378
root 5.83965 16.4674 -15.0193 8.66439 -22.5549 -6.39532
lfemur -42.4854 21.9319 -10.2919
ltibia 76.6784 -0 0
lfoot -11.2476 -3.91463 0.0656568
ltoes 16.0706 -0 0
rfemur -28.374 -8.90545 32.9095
rtibia 47.6184 -0 0
rfoot -19.7634 2.18374 0.424895
rtoes 17.2136 -0 0
lowerback 5.32753 1.6494 2.80524
upperback 2.54145 2.30883 1.02399
thorax -0.329182 1.16713 -0.659191
lowerneck -8.27114 -0.0657483 3.0414
upperneck -0.018303 -0.453346 1.75802
head 1.37623 -0.171842 -0.0325708
lclavicle -2.14691e-14 -1.81292e-14 -1.39918e-31
lhumerus -41.4817 -19.284 94.9123
lradius 56.9849 -0 0
lwrist 21.4651 0 0
lhand -23.1705 2.72274 -0.296451
lfingers 7.12502 -0 0
lthumb 3.29526 32.9942 -0.159825
rclavicle -2.14691e-14 -1.81292e-14 -1.39918e-31
rhumerus -40.6744 10.0664 -95.8214
rradius 62.5057 -0 0
rwrist 8.63797 0 0
rhand -8.17304 -19.8157 -0.29585
rfingers 7.12502 -0 0
rthumb 17.7462 -49.199 -0.282889
379
root 5.76068 16.4563 -14.8171 8.59998 -23.6737 -6.49166
lfemur -42.4918 21.641 -10.2085
ltibia 76.4552 -0 0
lfoot -11.235 -3.77524 0.0698985
ltoes 16.2127 -0 0
rfemur -28.5879 -9.32897 33.099
rtibia 48.3893 -0 0
rfoot -19.5819 2.36931 0.469886
rtoes 17.3451 -0 0
lowerback 5.35022 1.75094 2.79787
upperback 2.51609 2.44259 0.977305
thorax -0.365903 1.23377 -0.71284
lowerneck -8.27697 0.145425 3.15964
upperneck 0.122866 -0.186319 1.64384
head 1.42251 -0.0364257 -0.0855818
lclavicle -2.14073e-14 -1.77616e-14 -1.57618e-31
lhumerus -41.5462 -18.8598 94.7303
lradius 56.8102 -0 0
lwrist 21.4742 0 0
lhand -23.5525 2.57109 -0.334825
lfingers 7.12502 -0 0
lthumb 2.92807 32.8864 -0.181157
rclavicle -2.14073e-14 -1.77616e-14 -1.57618e-31
rhumerus -41.1146 9.89492 -96.1113
rradius 62.3649 -0 0
rwrist 8.77991 0 0
rhand -8.07859 -19.6318 -0.333548
rfingers 7.12502 -0 0
rthumb 17.8375 -49.0247 -0.318562
380
root 5.68016 16.4441 -14.6112 8.52852 -24.7925 -6.57902
lfemur -42.4754 21.3379 -10.1249
ltibia 76.1946 -0 0
lfoot -11.2278 -3.6134 0.0731311
ltoes 16.3318 -0 0
rfemur -28.8269 -9.76446 33.2722
rtibia 49.1998 -0 0
rfoot -19.3701 2.54801 0.51196
rtoes 17.4977 -0 0
lowerback 5.37394 1.85466 2.7852
upperback 2.49037 2.57897 0.926596
thorax -0.40338 1.30169 -0.767881
lowerneck -8.27924 0.356514 3.28222
upperneck 0.265819 0.080536 1.52896
head 1.46917 0.0988483 -0.139444
lclavicle -2.13447e-14 -1.73498e-14 -1.74924e-31
lhumerus -41.6162 -18.443 94.5517
lradius 56.6302 -0 0
lwrist 21.4784 0 0
lhand -23.9222 2.4212 -0.372865
lfingers 7.12502 -0 0
lthumb 2.5726 32.7787 -0.202467
rclavicle -2.13447e-14 -1.73498e-14 -1.74924e-31
rhumerus -41.5502 9.72454 -96.3855
rradius 62.2323 -0 0
rwrist 8.91753 0 0
rhand -8.00521 -19.4476 -0.370667
rfingers 7.12502 -0 0
rthumb 17.9084 -48.8506 -0.353602
